<?xml version="1.0" encoding="utf-8"?>
<!-- Generator: Adobe Illustrator 22.0.1, SVG Export Plug-In . SVG Version: 6.00 Build 0)  -->
<svg version="1.1" id="Calque_1" xmlns="http://www.w3.org/2000/svg" xmlns:xlink="http://www.w3.org/1999/xlink" x="0px" y="0px"
	 viewBox="0 0 16 16" style="enable-background:new 0 0 16 16;" xml:space="preserve">
<g>
	<path d="M11.7,8.3c0.2,0.4,0.4,0.8,0.7,1.2c0.2,0.3,0.3,0.6,0.5,0.9c0.1,0.1,0,0.1,0,0.2c-0.1,0.1-0.2,0.2-0.3,0.2
		c-0.3,0.2-0.5,0.3-0.8,0.5c-0.2,0.1-0.4,0.2-0.6,0.3c-0.2,0.1-0.3,0.1-0.5,0.1c-0.3,0-0.5-0.3-0.5-0.6c0-0.2,0.1-0.5,0-0.8
		C10,10,9.9,9.7,9.5,9.5c-0.3-0.2-0.7-0.3-1-0.1C8,9.6,7.7,10.2,7.9,10.8c0.1,0.4,0.3,0.7,0.6,1c0.4,0.3,0.3,0.8-0.1,1
		c-0.2,0.1-0.4,0.2-0.6,0.2c-0.3,0.1-0.7,0.1-1,0.2c-0.2,0-0.5,0.1-0.7,0.1c-0.1,0-0.1,0-0.2-0.1c-0.1-0.5-0.2-0.9-0.3-1.4
		c-0.1-0.4-0.2-0.7-0.3-1.1c-0.1-0.2-0.2-0.4-0.4-0.5c-0.3-0.1-0.5,0.1-0.6,0.3c-0.3,0.5-0.9,0.7-1.4,0.4c-0.2-0.1-0.5-0.3-0.6-0.6
		C2.2,9.9,2.2,9.4,2.3,9c0.1-0.3,0.3-0.4,0.5-0.6c0.3-0.2,0.7-0.1,1-0.1c0.2,0,0.4,0,0.5-0.2c0.2-0.2,0.2-0.4,0.1-0.6
		C4.3,7.3,4.1,6.9,3.9,6.6C3.7,6.2,3.5,5.8,3.3,5.4c0,0,0-0.1,0-0.1C3.5,5.2,3.7,5,3.8,4.9c0.3-0.2,0.6-0.4,0.9-0.6
		c0.2-0.1,0.4-0.2,0.6-0.2C5.6,4,5.9,4.3,5.9,4.7c0,0.2,0,0.5,0,0.7C6,6,6.3,6.3,6.8,6.4c0.7,0.2,1.2-0.3,1.3-1c0-0.2,0-0.5-0.1-0.7
		C7.9,4.5,7.7,4.3,7.5,4C7.2,3.8,7.2,3.3,7.6,3.2C8,3,8.4,3,8.8,2.9c0.3,0,0.7,0,1-0.1c0.1,0,0.1,0,0.1,0.1c0.1,0.4,0.1,0.8,0.2,1.2
		c0.1,0.4,0.3,0.9,0.4,1.3c0.1,0.2,0.2,0.3,0.4,0.3c0.2,0,0.4,0,0.5-0.2c0.2-0.3,0.4-0.5,0.7-0.6c0.2-0.1,0.5-0.1,0.8,0
		c0.4,0.2,0.7,0.5,0.8,0.9c0.1,0.3,0.1,0.5,0,0.7c-0.1,0.4-0.4,0.7-0.8,0.8c-0.2,0.1-0.4,0-0.6,0c-0.3-0.1-0.5,0-0.7,0.3
		c-0.1,0.1,0,0.3,0,0.4C11.6,8.2,11.7,8.3,11.7,8.3C11.7,8.3,11.7,8.3,11.7,8.3z"/>
</g>
</svg>
